<svg height="512pt" viewBox="-48 0 512 512" width="512pt" xmlns="http://www.w3.org/2000/svg"><path d="m208 512c-71.121094 0-131.089844-55.535156-136.542969-126.449219l-4.992187-64.75c-.929688-12-9.375-22.03125-21.058594-24.960937-26.734375-6.6875-45.40625-30.59375-45.40625-58.144532v-29.695312c0-114.6875 93.3125-208 208-208s208 93.3125 208 208v29.695312c0 27.550782-18.671875 51.457032-45.40625 58.144532-11.683594 2.929687-20.144531 12.945312-21.058594 24.945312l-4.992187 64.765625c-5.453125 70.914063-65.421875 126.449219-136.542969 126.449219zm0 0" fill="#57565c"/><path d="m208 448c-35.296875 0-64-28.703125-64-64v-96c0-35.296875 28.703125-64 64-64s64 28.703125 64 64v96c0 35.296875-28.703125 64-64 64zm0 0" fill="#2d2d30"/><path d="m96 208v-32c35.296875 0 64-28.703125 64-64h32c0 52.945312-43.054688 96-96 96zm0 0" fill="#fff"/><path d="m320 208c-52.945312 0-96-43.054688-96-96h32c0 35.296875 28.703125 64 64 64zm0 0" fill="#fff"/><path d="m370.59375 263.839844c-11.683594 2.929687-20.144531 12.945312-21.058594 24.945312l-4.992187 64.765625c-5.453125 70.914063-65.421875 126.449219-136.542969 126.449219s-131.089844-55.535156-136.542969-126.449219l-4.992187-64.75c-.929688-12-9.375-22.03125-21.058594-24.960937-26.445312-6.625-44.941406-30.097656-45.328125-57.28125-.015625.480468-.078125.960937-.078125 1.441406v29.695312c0 27.550782 18.671875 51.457032 45.40625 58.144532 11.683594 2.929687 20.144531 12.945312 21.058594 24.960937l4.992187 64.75c5.453125 70.914063 65.421875 126.449219 136.542969 126.449219s131.089844-55.535156 136.542969-126.449219l4.992187-64.765625c.929688-12 9.375-22.015625 21.058594-24.945312 26.734375-6.6875 45.40625-30.59375 45.40625-58.144532v-29.695312c0-.480469-.0625-.960938-.078125-1.441406-.386719 27.183594-18.882813 50.671875-45.328125 57.28125zm0 0" fill="#2d2d30"/></svg>