<?xml version="1.0" encoding="iso-8859-1"?>
<!-- Generator: Adobe Illustrator 19.0.0, SVG Export Plug-In . SVG Version: 6.00 Build 0)  -->
<svg version="1.1" id="Capa_1" xmlns="http://www.w3.org/2000/svg" xmlns:xlink="http://www.w3.org/1999/xlink" x="0px" y="0px"
	 viewBox="0 0 512 512" style="enable-background:new 0 0 512 512;" xml:space="preserve">
<g>
	<g>
		<path d="M256,0C147.371,0,58.994,88.376,58.994,197.006C58.994,302.064,144.165,512,256,512c42.081,0,84.109-29.89,121.54-86.439
			c2.319-3.502,1.359-8.219-2.143-10.538c-3.501-2.319-8.219-1.36-10.538,2.143c-43.563,65.811-83.243,79.624-108.86,79.624
			c-22.699,0-45.781-10.543-68.603-31.336c-20.638-18.804-40.911-46.166-58.627-79.128c-32.639-60.728-54.568-136.81-54.568-189.321
			C74.202,96.762,155.756,15.208,256,15.208c100.244,0,181.798,81.554,181.798,181.798c0,55.069-23.383,133.799-58.184,195.91
			c-2.053,3.663-0.747,8.297,2.917,10.35c3.663,2.052,8.297,0.746,10.351-2.917c35.963-64.183,60.125-145.9,60.125-203.344
			C453.006,88.376,364.629,0,256,0z"/>
	</g>
</g>
<g>
	<g>
		<path d="M301.602,300.175c-12.027-16.036-28.223-24.868-45.602-24.868s-33.575,8.832-45.602,24.868
			c-11.537,15.382-17.891,35.716-17.891,57.255s6.354,41.872,17.891,57.256c12.027,16.036,28.223,24.868,45.602,24.868
			c17.381,0,33.576-8.832,45.602-24.868c11.537-15.382,17.891-35.716,17.891-57.256
			C319.492,335.891,313.139,315.558,301.602,300.175z M256,424.345c-26.624,0-48.285-30.018-48.285-66.915
			s21.661-66.915,48.285-66.915c26.625,0,48.285,30.017,48.285,66.915S282.623,424.345,256,424.345z"/>
	</g>
</g>
<g>
	<g>
		<path d="M370.282,156.208c-23.302-23.301-48.386-26.037-67.105-7.319c-20.518,20.518-20.518,53.905,0,74.424
			c10.259,10.259,23.735,15.389,37.213,15.389c13.476,0,26.952-5.13,37.212-15.389C396.319,204.596,393.582,179.51,370.282,156.208z
			 M366.847,212.561c-14.588,14.589-38.328,14.588-52.917,0c-14.589-14.589-14.589-38.328,0-52.917
			c4.257-4.257,10.005-7.822,17.313-7.822c7.679,0,17.08,3.936,28.286,15.141C381.396,188.83,375.578,203.829,366.847,212.561z"/>
	</g>
</g>
<g>
	<g>
		<path d="M208.825,148.889c-18.718-18.718-43.804-15.982-67.105,7.319c-10.382,10.382-16.931,21.496-18.941,32.142
			c-0.78,4.126,1.934,8.104,6.062,8.882c4.125,0.78,8.104-1.934,8.882-6.062c1.44-7.627,6.541-16,14.751-24.209
			c21.869-21.868,36.867-16.049,45.598-7.319c14.589,14.589,14.589,38.328,0,52.917c-14.59,14.589-38.33,14.588-52.918,0
			c-2.97-2.97-7.784-2.97-10.753,0c-2.97,2.97-2.97,7.784,0,10.753c10.259,10.259,23.735,15.389,37.213,15.389
			c13.476,0,26.952-5.13,37.212-15.389C229.343,202.795,229.343,169.409,208.825,148.889z"/>
	</g>
</g>
<g>
</g>
<g>
</g>
<g>
</g>
<g>
</g>
<g>
</g>
<g>
</g>
<g>
</g>
<g>
</g>
<g>
</g>
<g>
</g>
<g>
</g>
<g>
</g>
<g>
</g>
<g>
</g>
<g>
</g>
</svg>
